<?xml version="1.0" encoding="UTF-8" standalone="no"?>
<!-- Generator: Adobe Illustrator 15.0.2, SVG Export Plug-In . SVG Version: 6.00 Build 0)  -->

<svg
   xmlns:dc="http://purl.org/dc/elements/1.1/"
   xmlns:cc="http://creativecommons.org/ns#"
   xmlns:rdf="http://www.w3.org/1999/02/22-rdf-syntax-ns#"
   xmlns:svg="http://www.w3.org/2000/svg"
   xmlns="http://www.w3.org/2000/svg"
   xmlns:xlink="http://www.w3.org/1999/xlink"
   xmlns:sodipodi="http://sodipodi.sourceforge.net/DTD/sodipodi-0.dtd"
   xmlns:inkscape="http://www.inkscape.org/namespaces/inkscape"
   version="1.1"
   id="Layer_1"
   x="0px"
   y="0px"
   width="1862.4934"
   height="999.21631"
   viewBox="0 0 1862.4934 999.21634"
   enable-background="new 0 0 1614.133 754.363"
   xml:space="preserve"
   inkscape:version="0.92.3 (2405546, 2018-03-11)"
   sodipodi:docname="20190907090742!Osem_Logo.svg"><metadata
   id="metadata43"><rdf:RDF><cc:Work
       rdf:about=""><dc:format>image/svg+xml</dc:format><dc:type
         rdf:resource="http://purl.org/dc/dcmitype/StillImage" /><dc:title /></cc:Work></rdf:RDF></metadata><defs
   id="defs41">
	
	
	
	
	
	
	
	
	
	
	
	
	
	
	
	
	
<radialGradient
   inkscape:collect="always"
   xlink:href="#linearGradient2086"
   id="radialGradient2088"
   cx="-280.54785"
   cy="-23.906677"
   fx="-280.54785"
   fy="-23.906677"
   r="43.178509"
   gradientTransform="matrix(-0.00612437,-0.48622136,1.1095073,-0.0139752,-263.66807,-167.46288)"
   gradientUnits="userSpaceOnUse" /><linearGradient
   inkscape:collect="always"
   id="linearGradient2086"><stop
     style="stop-color:#f3970b;stop-opacity:1"
     offset="0"
     id="stop2082" /><stop
     style="stop-color:#f8ad00;stop-opacity:1"
     offset="1"
     id="stop2084" /></linearGradient><linearGradient
   inkscape:collect="always"
   xlink:href="#linearGradient2094"
   id="linearGradient2106"
   x1="-290.72034"
   y1="-5.7318239"
   x2="-288.85284"
   y2="-42.433014"
   gradientUnits="userSpaceOnUse" /><linearGradient
   inkscape:collect="always"
   id="linearGradient2094"><stop
     style="stop-color:#ef8a04;stop-opacity:1"
     offset="0"
     id="stop2090" /><stop
     style="stop-color:#e78200;stop-opacity:1"
     offset="1"
     id="stop2092" /></linearGradient><filter
   inkscape:collect="always"
   style="color-interpolation-filters:sRGB"
   id="filter2064"
   x="-0.051340126"
   width="1.1026802"
   y="-0.12426452"
   height="1.248529"><feGaussianBlur
     inkscape:collect="always"
     stdDeviation="1.4833403"
     id="feGaussianBlur2066" /></filter></defs><sodipodi:namedview
   pagecolor="#ffffff"
   bordercolor="#666666"
   borderopacity="1"
   objecttolerance="10"
   gridtolerance="10"
   guidetolerance="10"
   inkscape:pageopacity="0"
   inkscape:pageshadow="2"
   inkscape:window-width="1920"
   inkscape:window-height="1017"
   id="namedview39"
   showgrid="false"
   fit-margin-top="0"
   fit-margin-left="0"
   fit-margin-right="0"
   fit-margin-bottom="0"
   inkscape:zoom="0.51085782"
   inkscape:cx="1258.7855"
   inkscape:cy="500.23808"
   inkscape:window-x="1912"
   inkscape:window-y="-8"
   inkscape:window-maximized="1"
   inkscape:current-layer="Layer_1" />

<g
   id="g80"><g
     transform="matrix(21.567365,0,0,21.912447,7206.0822,1124.8131)"
     id="g2100"><path
       style="fill:url(#radialGradient2088);fill-opacity:1;stroke-width:1.5720998"
       d="m -334.11973,-28.601163 c 0,12.590952 21.06142,22.8693392 43.39938,22.8693392 v 0 c 22.08486,0 42.95764,-10.2783872 42.95764,-22.8693392 v 0 c 0,-13.902079 -22.09587,-22.730993 -42.95764,-22.730993 v 0 c -21.2312,0 -43.39938,8.619824 -43.39938,22.730993"
       id="path2070"
       inkscape:connector-curvature="0" /><path
       style="fill:url(#linearGradient2106);fill-opacity:1;stroke-width:2.02716327"
       d="m -292.91073,-30.815498 c -14.2771,0 -28.8065,1.392373 -41.07191,3.971851 1.84356,11.775964 21.97347,21.1118889 43.26247,21.1118889 20.42168,0 39.80431,-8.7891399 42.60825,-20.0680259 -12.97345,-3.229353 -29.09474,-5.015714 -44.79881,-5.015714 z"
       id="path2076"
       inkscape:connector-curvature="0" /></g><path
     d="m -390.16168,84.884055 c 0.18105,-0.467992 1.09588,-2.551545 2.00644,-3.47452 0.48678,0.705404 1.32715,0.473204 1.62776,1.282795 1.39908,1.130695 1.15944,0.831503 1.5737,1.913454 4.5706,-1.041879 5.14335,-0.559188 10.7917,-0.559188 l 0.73934,-0.891923 c -0.95477,0 -0.61124,-0.04498 -1.54552,-0.01421 -0.21179,0.01537 1.57114,0.270404 1.54552,0.01421 -0.029,-0.288652 1.6767,-1.080243 2.00805,-1.129775 5.11204,-0.647331 10.09427,-0.548267 14.18322,-0.167384 4.07699,0.379176 8.65613,1.091411 13.02177,2.657645 7.27778,2.625194 10.97438,4.957868 12.02212,10.882241 -2.23001,9.38028 -16.13956,14.23167 -36.95539,15.19231 -22.7904,-1.9663 -30.08409,-6.73868 -34.3218,-14.248664 0,-3.190541 5.11836,-6.329548 11.0639,-8.548238 0.0222,-1.036755 0.19642,-2.17599 1.03505,-1.310035 l 0.68832,0.710528 0.0905,-0.02904 c -0.0188,-0.160552 -0.0239,-0.326228 -0.0103,-0.505568 0.0666,-0.777139 0.41908,-2.347241 0.69748,-3.027024"
     style="fill:#ffffff;fill-opacity:1;fill-rule:nonzero;stroke:#ffff00;stroke-width:1.70799816;filter:url(#filter2064)"
     id="path2068"
     inkscape:connector-curvature="0"
     sodipodi:nodetypes="cccccccccccccccccccc"
     transform="matrix(22.419473,0,0,25.007593,9159.6923,-1894.7212)" /><g
     transform="translate(-137.54023,83.645948)"
     id="g144"><path
       inkscape:connector-curvature="0"
       id="path238"
       style="fill:#d40000;fill-opacity:1;fill-rule:nonzero;stroke:none;stroke-width:12.30991745"
       d="m 569.00178,182.49792 c 3.86532,-9.90948 28.80521,-72.29614 46.26067,-47.06081 10.31571,14.93193 20.63142,29.92541 27.03258,47.0485 3.80376,9.72484 5.88414,15.95365 7.18899,23.97972 96.82981,-22.07168 209.08394,-35.05864 328.76095,-35.05864 365.11213,0 661.10403,98.8117 661.10403,237.77835 0,131.3222 -295.9919,237.75374 -661.10403,237.75374 -127.81387,0 -246.24758,-18.34178 -347.39816,-40.91816 -5.39175,-1.30486 -6.04417,0.57856 -6.88125,2.67125 -2.2404,5.41636 11.14048,10.11875 23.04417,13.72555 116.08251,34.19695 233.80225,57.67197 381.23817,57.67197 363.2779,0 671.0874,-116.53799 666.6435,-278.77038 2.2281,-139.98838 -287.1535,-270.12882 -673.7587,-263.90001 -20.2006,0 -40.21648,-0.78783 -59.96158,-0.1354 -4.48081,0.33236 -11.15279,-0.91094 -11.6698,-6.36423 -0.60319,-6.06879 9.63866,-7.95221 16.61838,-8.97393 108.3273,-13.73787 213.8602,-11.63287 300.4727,-3.56987 86.3541,8.03837 183.3316,23.11802 275.853,56.35479 154.1817,55.6039 243.564,131.50685 243.564,233.81457 -6.5243,188.73564 -351.1281,314.73995 -756.9614,310.1976 -384.75877,-5.14555 -716.43717,-156.0282 -711.90712,-295.20412 0,-67.60607 78.46341,-132.4424 204.4431,-179.42935 0.44316,-21.9609 4.16075,-46.10064 21.94858,-27.74656 l 14.58726,15.06734 1.90803,-0.6278 c -0.43084,-3.38523 -0.52932,-6.95511 -0.25851,-10.72194 1.41564,-16.45836 3.36061,-23.2042 9.23244,-37.58218" /><path
       inkscape:connector-curvature="0"
       id="path242"
       style="fill:#ffffff;fill-opacity:1;fill-rule:nonzero;stroke:none;stroke-width:12.30991745"
       d="m 1266.7057,291.72997 c 0,-9.09703 7.3859,-16.48298 16.483,-16.48298 9.0847,0 16.4706,7.38595 16.4706,16.48298 0,9.09703 -7.3859,16.48298 -16.4706,16.48298 -9.0971,0 -16.483,-7.38595 -16.483,-16.48298" /><path
       inkscape:connector-curvature="0"
       id="path246"
       style="fill:#ffffff;fill-opacity:1;fill-rule:nonzero;stroke:none;stroke-width:12.30991745"
       d="m 1133.6909,552.49586 c 0,-6.30267 5.1086,-11.41129 11.4113,-11.41129 6.3027,0 11.4113,5.10862 11.4113,11.41129 0,6.30268 -5.1086,11.4113 -11.4113,11.4113 -6.3027,0 -11.4113,-5.10862 -11.4113,-11.4113" /><path
       inkscape:connector-curvature="0"
       id="path250"
       style="fill:#ffffff;fill-opacity:1;fill-rule:nonzero;stroke:none;stroke-width:12.30991745"
       d="m 1113.3956,575.14119 c 0,-6.27806 5.1209,-11.41129 11.4236,-11.41129 6.3026,0 11.3989,5.13323 11.3989,11.41129 0,6.3273 -5.0963,11.41129 -11.3989,11.41129 -6.3027,0 -11.4236,-5.08399 -11.4236,-11.41129" /><path
       inkscape:connector-curvature="0"
       id="path254"
       style="fill:#ffffff;fill-opacity:1;fill-rule:nonzero;stroke:none;stroke-width:12.30991745"
       d="m 1092.1954,552.49586 c 0,-6.30267 5.0963,-11.41129 11.399,-11.41129 6.3027,0 11.3867,5.10862 11.3867,11.41129 0,6.30268 -5.084,11.4113 -11.3867,11.4113 -6.3027,0 -11.399,-5.10862 -11.399,-11.4113" /><path
       inkscape:connector-curvature="0"
       id="path258"
       style="fill:#ffffff;fill-opacity:1;fill-rule:nonzero;stroke:none;stroke-width:12.30991745"
       d="m 1431.7029,292.97573 c 1.5757,3.66836 2.9421,5.65025 5.8349,8.38306 3.6068,3.40984 7.9399,6.09341 11.1897,6.09341 h 65.3041 l -21.8008,98.08541 c -3.3976,12.34685 -7.0906,19.27733 -15.4736,28.96524 -9.1709,10.52498 -16.286,15.53511 -29.3222,20.55756 l 37.2867,69.5141 -62.0666,-0.20927 -77.257,-138.81893 -19.8067,85.68933 h 31.2426 l -12.6546,53.1296 h -101.3106 c 7.509,-5.20709 11.3374,-9.24474 16.126,-17.04923 4.4438,-7.26285 6.3026,-14.69804 7.6198,-20.45908 l 40.992,-179.40473 h 40.5612 c 6.475,1.35409 8.937,1.72338 15.5474,6.86893 3.0283,2.28964 9.8603,8.75235 13.1839,16.18754 l 43.9095,76.37072 c 5.1333,-1.4895 8.0261,-3.15133 11.8668,-6.86893 3.7422,-3.59449 6.0565,-6.15496 7.1397,-11.23895 l 5.958,-27.61115 h -29.3345 z" /><path
       inkscape:connector-curvature="0"
       id="path262"
       style="fill:#ffffff;fill-opacity:1;fill-rule:nonzero;stroke:none;stroke-width:12.30991745"
       d="m 844.23183,289.74438 c 1.95728,5.42867 5.05938,9.08472 8.65387,12.00217 3.13903,2.54815 8.4323,5.69949 14.50108,5.69949 h 178.55532 l -49.3135,216.91305 -205.66178,0.22158 30.88558,-135.80301 c 0.97248,-4.29616 5.89645,-11.39898 11.81752,-16.81534 6.56119,-6.01955 11.4236,-8.6785 20.02824,-10.99276 h -25.90007 z m 15.54743,181.49742 h 92.57057 l 25.13685,-110.27224 h -92.55826 z" /><path
       inkscape:connector-curvature="0"
       id="path266"
       style="fill:#ffffff;fill-opacity:1;fill-rule:nonzero;stroke:none;stroke-width:12.30991745"
       d="m 1093.7834,454.47692 c -0.9356,4.12382 -1.1202,7.66908 0.2462,10.83273 1.7726,4.08689 4.1238,5.0963 7.8783,5.92107 h 72.8501 c 7.0782,-0.93556 10.1311,-3.02824 12.0761,-7.42288 3.6806,-8.17379 4.0992,-11.34975 5.8718,-18.84649 l 16.6184,-69.71106 c 1.1817,-4.56698 1.4402,-7.4475 -1.2556,-10.66038 -2.3266,-2.80667 -5.6872,-3.43447 -8.7155,-3.43447 h -84.3721 z m -16.8277,-164.73131 c 1.0095,4.41926 2.3512,6.94279 5.4164,10.27878 4.6901,5.10862 9.2078,7.42288 16.1383,7.42288 h 146.2295 c 6.5119,1.32947 10.2295,3.07748 15.3997,7.23823 5.6256,4.56698 8.8754,8.09993 10.8943,15.05503 1.7233,5.92107 1.2309,9.79869 -0.1355,15.80593 l -32.8674,143.12741 c -1.3418,5.85952 -8.0876,15.91672 -11.5221,19.32657 -6.9305,6.86893 -11.7436,10.43881 -20.9515,13.71325 -4.3084,1.52643 -9.3801,2.64663 -11.4482,2.64663 h -134.055 c -8.4938,-0.43085 -13.8609,-2.81897 -19.942,-8.74004 -5.2687,-5.15786 -7.7676,-9.46633 -8.7893,-16.7538 -0.4432,-3.16365 -0.6278,-5.09631 0.074,-8.1984 l 21.0007,-92.55827 c 2.5235,-9.19551 5.3056,-14.36567 11.5836,-21.51773 7.1521,-8.11224 12.79,-11.90369 23.0073,-15.43664 l -26.2817,-0.18465 z" /><path
       inkscape:connector-curvature="0"
       id="path270"
       style="fill:#ffffff;fill-opacity:1;fill-rule:nonzero;stroke:none;stroke-width:12.30991745"
       d="m 605.13508,142.44514 c -10.99275,15.49819 -18.31715,28.27588 -24.64445,44.52497 -5.55177,13.55322 -7.15206,18.96959 -8.4323,34.07385 -0.88631,12.38378 3.28675,21.69008 10.56191,30.97175 7.27516,9.29399 12.26068,15.8798 22.26864,22.07169 10.11876,-6.19189 15.21506,-12.7777 22.65025,-22.07169 7.4475,-9.28167 11.7929,-18.58797 11.11586,-30.97175 -1.02173,-15.10426 -2.53585,-20.52063 -7.82911,-34.07385 -6.05648,-16.24909 -14.99348,-29.02678 -25.6908,-44.52497" /><path
       inkscape:connector-curvature="0"
       id="path274"
       style="fill:#ffffff;fill-opacity:1;fill-rule:nonzero;stroke:none;stroke-width:12.30991745"
       d="m 676.88959,384.44826 -0.39392,45.31281 c -0.39392,4.64084 -1.13251,7.27516 -2.80666,11.60825 -1.93266,4.94859 -3.7176,7.50905 -7.0782,11.63287 l -33.98768,34.04923 c -3.61912,3.68067 -5.6995,5.7118 -8.99855,9.6756 -4.41926,5.35481 -6.93049,8.41998 -10.57422,14.34105 l 0.41854,-48.39028 c 1.21868,-6.96742 -0.72629,-4.66546 2.05575,-12.02679 1.96959,-5.41637 4.33309,-8.50615 9.78639,-13.94714 z" /><path
       inkscape:connector-curvature="0"
       id="path278"
       style="fill:#ffffff;fill-opacity:1;fill-rule:nonzero;stroke:none;stroke-width:12.30991745"
       d="m 676.88959,304.68739 -0.39392,45.3128 c -0.39392,4.62853 -1.13251,7.26285 -2.80666,11.62056 -1.92035,4.93628 -3.72991,7.49674 -7.0782,11.60826 l -33.98768,34.06154 c -3.61912,3.68066 -5.6995,5.7118 -8.99855,9.6879 -4.43157,5.3425 -6.93049,8.40767 -10.57422,14.31643 l 0.41854,-48.39028 c 1.21868,-6.9551 -0.72629,-4.65315 2.05575,-12.00217 1.96959,-5.41636 4.33309,-8.51846 9.78639,-13.92251 z" /><path
       inkscape:connector-curvature="0"
       id="path282"
       style="fill:#ffffff;fill-opacity:1;fill-rule:nonzero;stroke:none;stroke-width:12.30991745"
       d="m 676.88959,224.93513 -0.39392,45.30049 c -0.39392,4.64084 -1.1202,7.26285 -2.80666,11.62056 -1.93266,4.92397 -3.7176,7.50905 -7.0782,11.60826 l -33.98768,34.46776 c -3.69298,3.42216 -5.6995,5.47792 -8.99855,9.28168 -4.53005,5.24403 -7.00435,8.37075 -10.57422,14.32874 l 0.41854,-48.40259 c 1.21868,-6.9551 -0.72629,-4.64084 2.05575,-12.00217 1.96959,-5.41636 4.33309,-8.51846 9.78639,-13.92251 z" /><path
       inkscape:connector-curvature="0"
       id="path286"
       style="fill:#ffffff;fill-opacity:1;fill-rule:nonzero;stroke:none;stroke-width:12.30991745"
       d="m 534.69035,384.44826 -0.39392,45.31281 c 0.25851,4.64084 0.96018,7.27516 2.62202,11.60825 1.85879,4.91166 3.43446,7.61984 6.85662,11.63287 l 33.38449,34.04923 c 3.63143,3.61912 5.58871,5.74873 8.82621,9.6756 4.38234,5.33019 6.80739,8.41998 10.32803,14.34105 l 0.41853,-48.39028 c -1.08327,-6.96742 0.82477,-4.66546 -1.82187,-12.02679 -1.89572,-5.41637 -4.18537,-8.50615 -9.5648,-13.94714 z" /><path
       inkscape:connector-curvature="0"
       id="path290"
       style="fill:#ffffff;fill-opacity:1;fill-rule:nonzero;stroke:none;stroke-width:12.30991745"
       d="m 534.69035,304.68739 -0.39392,45.3128 c 0.25851,4.62853 0.96018,7.26285 2.62202,11.62056 1.84648,4.91166 3.42215,7.61984 6.85662,11.60826 l 33.38449,34.06154 c 3.63143,3.6068 5.58871,5.73642 8.82621,9.6879 4.38234,5.31788 6.79508,8.39536 10.32803,14.31643 l 0.41853,-48.39028 c -1.08327,-6.9551 0.82477,-4.65315 -1.82187,-12.00217 -1.89572,-5.41636 -4.18537,-8.51846 -9.5648,-13.92251 z" /><path
       inkscape:connector-curvature="0"
       id="path294"
       style="fill:#ffffff;fill-opacity:1;fill-rule:nonzero;stroke:none;stroke-width:12.30991745"
       d="m 534.69035,224.93513 -0.39392,45.30049 c 0.27082,4.64084 0.96018,7.27516 2.62202,11.62056 1.85879,4.91166 3.42215,7.61984 6.85662,11.60826 l 33.38449,34.06154 c 3.63143,3.6068 5.58871,5.74873 8.82621,9.6879 4.38234,5.31789 6.80739,8.40767 10.32803,14.32874 l 0.41853,-48.40259 c -1.08327,-6.9551 0.82477,-4.64084 -1.82187,-12.00217 -1.89572,-5.41636 -4.18537,-8.51846 -9.5648,-13.92251 z" /><path
       inkscape:connector-curvature="0"
       id="path298"
       style="fill:#ffffff;fill-opacity:1;fill-rule:nonzero;stroke:none;stroke-width:12.30991745"
       d="m 702.77488,281.11267 c 40.0934,30.35625 66.00578,69.05863 66.00578,123.91162 0,92.00432 -73.1086,161.59228 -163.27874,161.59228 -90.20707,0 -163.31567,-69.58796 -163.31567,-161.59228 0,-54.75451 25.90006,-93.39534 65.87036,-123.73929 l 0.18465,47.65169 c -19.60969,23.03186 -31.47645,43.18319 -31.47645,76.0876 0,72.51772 57.62272,126.31206 128.73711,126.31206 71.08977,0 128.71249,-53.79434 128.71249,-126.31206 0,-32.90441 -11.81752,-53.04343 -31.41491,-76.0876 z" /></g></g></svg>